<svg width="108" height="22" viewBox="0 0 108 22" fill="none" xmlns="http://www.w3.org/2000/svg">
<path d="M15.8933 2.42578C15.5423 1.57662 14.328 1.6106 14.025 2.47806L11.5491 9.56706C11.2631 10.3861 10.1412 10.4773 9.72663 9.71522L7.36223 5.36916C6.95425 4.61925 5.85477 4.69245 5.54979 5.48981L0.51911 18.6428C0.268691 19.2975 0.752138 20 1.45312 20H21.6625C22.3748 20 22.8587 19.2763 22.5866 18.618L15.8933 2.42578Z" fill="#232E26"/>
<path d="M31.7362 11.662C32.2935 11.662 32.7775 11.5923 33.1882 11.453C33.6062 11.3137 33.9472 11.123 34.2112 10.881C34.4825 10.6317 34.6842 10.3383 34.8162 10.001C34.9482 9.66367 35.0142 9.29333 35.0142 8.89C35.0142 8.08333 34.7465 7.46367 34.2112 7.031C33.6832 6.59833 32.8729 6.382 31.7802 6.382H29.8882V11.662H31.7362ZM39.3482 20H36.6752C36.1692 20 35.8025 19.802 35.5752 19.406L32.2312 14.313C32.1065 14.1223 31.9672 13.9867 31.8132 13.906C31.6665 13.8253 31.4465 13.785 31.1532 13.785H29.8882V20H26.9292V4.094H31.7802C32.8582 4.094 33.7822 4.20767 34.5522 4.435C35.3295 4.655 35.9639 4.96667 36.4552 5.37C36.9539 5.77333 37.3205 6.25733 37.5552 6.822C37.7899 7.37933 37.9072 7.99533 37.9072 8.67C37.9072 9.20533 37.8265 9.71133 37.6652 10.188C37.5112 10.6647 37.2839 11.0973 36.9832 11.486C36.6899 11.8747 36.3232 12.2157 35.8832 12.509C35.4505 12.8023 34.9555 13.0333 34.3982 13.202C34.5889 13.312 34.7649 13.444 34.9262 13.598C35.0875 13.7447 35.2342 13.9207 35.3662 14.126L39.3482 20ZM46.5175 13.059C46.5175 12.707 46.4661 12.377 46.3635 12.069C46.2681 11.7537 46.1215 11.4787 45.9235 11.244C45.7255 11.0093 45.4725 10.826 45.1645 10.694C44.8638 10.5547 44.5118 10.485 44.1085 10.485C43.3238 10.485 42.7041 10.7087 42.2495 11.156C41.8021 11.6033 41.5161 12.2377 41.3915 13.059H46.5175ZM41.3365 14.698C41.3805 15.2773 41.4831 15.7797 41.6445 16.205C41.8058 16.623 42.0185 16.9713 42.2825 17.25C42.5465 17.5213 42.8581 17.7267 43.2175 17.866C43.5841 17.998 43.9875 18.064 44.4275 18.064C44.8675 18.064 45.2451 18.0127 45.5605 17.91C45.8831 17.8073 46.1618 17.6937 46.3965 17.569C46.6385 17.4443 46.8475 17.3307 47.0235 17.228C47.2068 17.1253 47.3828 17.074 47.5515 17.074C47.7788 17.074 47.9475 17.1583 48.0575 17.327L48.8385 18.317C48.5378 18.669 48.2005 18.966 47.8265 19.208C47.4525 19.4427 47.0601 19.6333 46.6495 19.78C46.2461 19.9193 45.8318 20.0183 45.4065 20.077C44.9885 20.1357 44.5815 20.165 44.1855 20.165C43.4008 20.165 42.6711 20.0367 41.9965 19.78C41.3218 19.516 40.7351 19.131 40.2365 18.625C39.7378 18.1117 39.3455 17.481 39.0595 16.733C38.7735 15.9777 38.6305 15.105 38.6305 14.115C38.6305 13.345 38.7551 12.6227 39.0045 11.948C39.2538 11.266 39.6095 10.6757 40.0715 10.177C40.5408 9.671 41.1091 9.27133 41.7765 8.978C42.4511 8.68467 43.2101 8.538 44.0535 8.538C44.7648 8.538 45.4211 8.65167 46.0225 8.879C46.6238 9.10633 47.1408 9.44 47.5735 9.88C48.0061 10.3127 48.3435 10.848 48.5855 11.486C48.8348 12.1167 48.9595 12.839 48.9595 13.653C48.9595 14.0637 48.9155 14.3423 48.8275 14.489C48.7395 14.6283 48.5708 14.698 48.3215 14.698H41.3365ZM70.5349 4.094L65.5959 20H62.9229L59.4469 9.132C59.3516 8.868 59.2636 8.54533 59.1829 8.164C59.1389 8.34733 59.0949 8.51967 59.0509 8.681C59.0069 8.84233 58.9593 8.99267 58.9079 9.132L55.3989 20H52.7149L47.7869 4.094H50.2619C50.5186 4.094 50.7313 4.15633 50.8999 4.281C51.0759 4.39833 51.1933 4.55967 51.2519 4.765L53.9579 14.28C54.0166 14.5147 54.0716 14.7713 54.1229 15.05C54.1816 15.3213 54.2403 15.6073 54.2989 15.908C54.3576 15.6 54.4199 15.3103 54.4859 15.039C54.5593 14.7677 54.6363 14.5147 54.7169 14.28L57.8409 4.765C57.8996 4.59633 58.0133 4.44233 58.1819 4.303C58.3579 4.16367 58.5706 4.094 58.8199 4.094H59.6889C59.9456 4.094 60.1546 4.15633 60.3159 4.281C60.4773 4.40567 60.5983 4.567 60.6789 4.765L63.7919 14.28C63.9459 14.7347 64.0853 15.259 64.2099 15.853C64.3053 15.2737 64.4116 14.7493 64.5289 14.28L67.2349 4.765C67.2789 4.58167 67.3889 4.424 67.5649 4.292C67.7483 4.16 67.9646 4.094 68.2139 4.094H70.5349ZM74.1077 8.714V20H71.3797V8.714H74.1077ZM74.4817 5.425C74.4817 5.65967 74.434 5.87967 74.3387 6.085C74.2434 6.29033 74.115 6.47 73.9537 6.624C73.7997 6.778 73.6164 6.90267 73.4037 6.998C73.191 7.086 72.9637 7.13 72.7217 7.13C72.487 7.13 72.2634 7.086 72.0507 6.998C71.8454 6.90267 71.6657 6.778 71.5117 6.624C71.3577 6.47 71.233 6.29033 71.1377 6.085C71.0497 5.87967 71.0057 5.65967 71.0057 5.425C71.0057 5.183 71.0497 4.95567 71.1377 4.743C71.233 4.53033 71.3577 4.347 71.5117 4.193C71.6657 4.039 71.8454 3.918 72.0507 3.83C72.2634 3.73467 72.487 3.687 72.7217 3.687C72.9637 3.687 73.191 3.73467 73.4037 3.83C73.6164 3.918 73.7997 4.039 73.9537 4.193C74.115 4.347 74.2434 4.53033 74.3387 4.743C74.434 4.95567 74.4817 5.183 74.4817 5.425ZM78.9676 3.654V20H76.2506V3.654H78.9676ZM88.0987 11.596C87.7907 11.222 87.4533 10.958 87.0867 10.804C86.7273 10.65 86.3387 10.573 85.9207 10.573C85.51 10.573 85.1397 10.65 84.8097 10.804C84.4797 10.958 84.1973 11.1927 83.9627 11.508C83.728 11.816 83.5483 12.212 83.4237 12.696C83.299 13.1727 83.2367 13.7373 83.2367 14.39C83.2367 15.05 83.288 15.611 83.3907 16.073C83.5007 16.5277 83.6547 16.9017 83.8527 17.195C84.0507 17.481 84.2927 17.69 84.5787 17.822C84.8647 17.9467 85.1837 18.009 85.5357 18.009C86.1003 18.009 86.5807 17.8917 86.9767 17.657C87.3727 17.4223 87.7467 17.0887 88.0987 16.656V11.596ZM90.8157 3.654V20H89.1547C88.7953 20 88.568 19.835 88.4727 19.505L88.2417 18.416C87.787 18.9367 87.2627 19.3583 86.6687 19.681C86.082 20.0037 85.3963 20.165 84.6117 20.165C83.9957 20.165 83.431 20.0367 82.9177 19.78C82.4043 19.5233 81.9607 19.153 81.5867 18.669C81.22 18.1777 80.934 17.5727 80.7287 16.854C80.5307 16.1353 80.4317 15.314 80.4317 14.39C80.4317 13.554 80.5453 12.7767 80.7727 12.058C81 11.3393 81.3263 10.716 81.7517 10.188C82.177 9.66 82.6867 9.24933 83.2807 8.956C83.8747 8.65533 84.542 8.505 85.2827 8.505C85.9133 8.505 86.4523 8.604 86.8997 8.802C87.347 9 87.7467 9.26767 88.0987 9.605V3.654L90.8157 3.654Z" fill="#232E26"/>
</svg>
