<svg width="135" height="32" viewBox="0 0 135 32" fill="none" xmlns="http://www.w3.org/2000/svg">
<path d="M22.9101 3.49675C22.4041 2.27268 20.6538 2.32167 20.2171 3.57212L16.6481 13.7909C16.2357 14.9715 14.6186 15.103 14.0209 14.0045L10.6126 7.73964C10.0245 6.65865 8.43964 6.76416 8.00002 7.91356L0.748298 26.8735C0.38732 27.8173 1.08421 28.83 2.09468 28.83H31.2264C32.2533 28.83 32.9509 27.7868 32.5586 26.8378L22.9101 3.49675Z" fill="#D9EFDE"/>
<path d="M45.8331 15.872C46.6437 15.872 47.3477 15.7707 47.9451 15.568C48.5531 15.3653 49.0491 15.088 49.4331 14.736C49.8277 14.3733 50.1211 13.9467 50.3131 13.456C50.5051 12.9653 50.6011 12.4267 50.6011 11.84C50.6011 10.6667 50.2117 9.76533 49.4331 9.136C48.6651 8.50667 47.4864 8.192 45.8971 8.192H43.1451V15.872H45.8331ZM56.9051 28H53.0171C52.2811 28 51.7477 27.712 51.4171 27.136L46.5531 19.728C46.3717 19.4507 46.1691 19.2533 45.9451 19.136C45.7317 19.0187 45.4117 18.96 44.9851 18.96H43.1451V28H38.8411V4.864H45.8971C47.4651 4.864 48.8091 5.02933 49.9291 5.36C51.0597 5.68 51.9824 6.13333 52.6971 6.72C53.4224 7.30667 53.9557 8.01067 54.2971 8.832C54.6384 9.64267 54.8091 10.5387 54.8091 11.52C54.8091 12.2987 54.6917 13.0347 54.4571 13.728C54.2331 14.4213 53.9024 15.0507 53.4651 15.616C53.0384 16.1813 52.5051 16.6773 51.8651 17.104C51.2357 17.5307 50.5157 17.8667 49.7051 18.112C49.9824 18.272 50.2384 18.464 50.4731 18.688C50.7077 18.9013 50.9211 19.1573 51.1131 19.456L56.9051 28ZM67.3331 17.904C67.3331 17.392 67.2584 16.912 67.1091 16.464C66.9704 16.0053 66.7571 15.6053 66.4691 15.264C66.1811 14.9227 65.8131 14.656 65.3651 14.464C64.9277 14.2613 64.4157 14.16 63.8291 14.16C62.6877 14.16 61.7864 14.4853 61.1251 15.136C60.4744 15.7867 60.0584 16.7093 59.8771 17.904H67.3331ZM59.7971 20.288C59.8611 21.1307 60.0104 21.8613 60.2451 22.48C60.4797 23.088 60.7891 23.5947 61.1731 24C61.5571 24.3947 62.0104 24.6933 62.5331 24.896C63.0664 25.088 63.6531 25.184 64.2931 25.184C64.9331 25.184 65.4824 25.1093 65.9411 24.96C66.4104 24.8107 66.8157 24.6453 67.1571 24.464C67.5091 24.2827 67.8131 24.1173 68.0691 23.968C68.3357 23.8187 68.5917 23.744 68.8371 23.744C69.1677 23.744 69.4131 23.8667 69.5731 24.112L70.7091 25.552C70.2717 26.064 69.7811 26.496 69.2371 26.848C68.6931 27.1893 68.1224 27.4667 67.5251 27.68C66.9384 27.8827 66.3357 28.0267 65.7171 28.112C65.1091 28.1973 64.5171 28.24 63.9411 28.24C62.7997 28.24 61.7384 28.0533 60.7571 27.68C59.7757 27.296 58.9224 26.736 58.1971 26C57.4717 25.2533 56.9011 24.336 56.4851 23.248C56.0691 22.1493 55.8611 20.88 55.8611 19.44C55.8611 18.32 56.0424 17.2693 56.4051 16.288C56.7677 15.296 57.2851 14.4373 57.9571 13.712C58.6397 12.976 59.4664 12.3947 60.4371 11.968C61.4184 11.5413 62.5224 11.328 63.7491 11.328C64.7837 11.328 65.7384 11.4933 66.6131 11.824C67.4877 12.1547 68.2397 12.64 68.8691 13.28C69.4984 13.9093 69.9891 14.688 70.3411 15.616C70.7037 16.5333 70.8851 17.584 70.8851 18.768C70.8851 19.3653 70.8211 19.7707 70.6931 19.984C70.5651 20.1867 70.3197 20.288 69.9571 20.288H59.7971ZM102.268 4.864L95.0836 28H91.1956L86.1396 12.192C86.0009 11.808 85.8729 11.3387 85.7556 10.784C85.6916 11.0507 85.6276 11.3013 85.5636 11.536C85.4996 11.7707 85.4302 11.9893 85.3556 12.192L80.2516 28H76.3476L69.1796 4.864H72.7796C73.1529 4.864 73.4622 4.95467 73.7076 5.136C73.9636 5.30667 74.1342 5.54133 74.2196 5.84L78.1556 19.68C78.2409 20.0213 78.3209 20.3947 78.3956 20.8C78.4809 21.1947 78.5662 21.6107 78.6516 22.048C78.7369 21.6 78.8276 21.1787 78.9236 20.784C79.0302 20.3893 79.1422 20.0213 79.2596 19.68L83.8036 5.84C83.8889 5.59466 84.0542 5.37067 84.2996 5.168C84.5556 4.96533 84.8649 4.864 85.2276 4.864H86.4916C86.8649 4.864 87.1689 4.95467 87.4036 5.136C87.6382 5.31733 87.8142 5.552 87.9316 5.84L92.4596 19.68C92.6836 20.3413 92.8862 21.104 93.0676 21.968C93.2062 21.1253 93.3609 20.3627 93.5316 19.68L97.4676 5.84C97.5316 5.57333 97.6916 5.344 97.9476 5.152C98.2142 4.96 98.5289 4.864 98.8916 4.864H102.268ZM107.464 11.584V28H103.496V11.584H107.464ZM108.008 6.8C108.008 7.14133 107.939 7.46133 107.8 7.76C107.662 8.05866 107.475 8.32 107.24 8.544C107.016 8.768 106.75 8.94933 106.44 9.088C106.131 9.216 105.8 9.28 105.448 9.28C105.107 9.28 104.782 9.216 104.472 9.088C104.174 8.94933 103.912 8.768 103.688 8.544C103.464 8.32 103.283 8.05866 103.144 7.76C103.016 7.46133 102.952 7.14133 102.952 6.8C102.952 6.448 103.016 6.11733 103.144 5.808C103.283 5.49867 103.464 5.232 103.688 5.008C103.912 4.784 104.174 4.608 104.472 4.48C104.782 4.34133 105.107 4.272 105.448 4.272C105.8 4.272 106.131 4.34133 106.44 4.48C106.75 4.608 107.016 4.784 107.24 5.008C107.475 5.232 107.662 5.49867 107.8 5.808C107.939 6.11733 108.008 6.448 108.008 6.8ZM114.533 4.224V28H110.581V4.224H114.533ZM127.815 15.776C127.367 15.232 126.876 14.848 126.343 14.624C125.82 14.4 125.255 14.288 124.647 14.288C124.049 14.288 123.511 14.4 123.031 14.624C122.551 14.848 122.14 15.1893 121.799 15.648C121.457 16.096 121.196 16.672 121.015 17.376C120.833 18.0693 120.743 18.8907 120.743 19.84C120.743 20.8 120.817 21.616 120.967 22.288C121.127 22.9493 121.351 23.4933 121.639 23.92C121.927 24.336 122.279 24.64 122.695 24.832C123.111 25.0133 123.575 25.104 124.087 25.104C124.908 25.104 125.607 24.9333 126.183 24.592C126.759 24.2507 127.303 23.7653 127.815 23.136V15.776ZM131.767 4.224V28H129.351C128.828 28 128.497 27.76 128.359 27.28L128.023 25.696C127.361 26.4533 126.599 27.0667 125.735 27.536C124.881 28.0053 123.884 28.24 122.743 28.24C121.847 28.24 121.025 28.0533 120.279 27.68C119.532 27.3067 118.887 26.768 118.343 26.064C117.809 25.3493 117.393 24.4693 117.095 23.424C116.807 22.3787 116.663 21.184 116.663 19.84C116.663 18.624 116.828 17.4933 117.159 16.448C117.489 15.4027 117.964 14.496 118.583 13.728C119.201 12.96 119.943 12.3627 120.807 11.936C121.671 11.4987 122.641 11.28 123.719 11.28C124.636 11.28 125.42 11.424 126.071 11.712C126.721 12 127.303 12.3893 127.815 12.88V4.224H131.767Z" fill="#D9EFDE"/>
</svg>
